<svg width="209" height="81" viewBox="0 0 209 81" fill="none" xmlns="http://www.w3.org/2000/svg">
<path d="M43.5996 64H32.125L13.6026 31.7897H13.3405C13.4182 33.1293 13.4861 34.4787 13.5444 35.8378C13.6026 37.1969 13.6609 38.556 13.7191 39.9151C13.7774 41.2547 13.8356 42.6041 13.8939 43.9632V64H5.82671V21.4218H17.2139L35.7072 53.3118H35.9111C35.8722 51.9915 35.8237 50.681 35.7654 49.3801C35.7072 48.0793 35.6489 46.7784 35.5907 45.4776C35.5519 44.1768 35.513 42.8759 35.4742 41.5751V21.4218H43.5996V64ZM92.9927 42.6526C92.9927 45.9339 92.5849 48.9239 91.7695 51.6226C90.954 54.3019 89.7115 56.6124 88.0417 58.5539C86.3914 60.4955 84.2945 61.9905 81.7511 63.0389C79.2077 64.068 76.1983 64.5825 72.7229 64.5825C69.2475 64.5825 66.2381 64.068 63.6947 63.0389C61.1512 61.9905 59.0446 60.4955 57.3749 58.5539C55.7246 56.6124 54.4917 54.2922 53.6763 51.5935C52.8608 48.8947 52.4531 45.895 52.4531 42.5944C52.4531 38.1871 53.1714 34.3525 54.6082 31.0907C56.0644 27.8095 58.2971 25.266 61.3065 23.4604C64.316 21.6548 68.1408 20.7519 72.7811 20.7519C77.402 20.7519 81.1977 21.6548 84.1683 23.4604C87.1583 25.266 89.3717 27.8095 90.8084 31.0907C92.2646 34.3719 92.9927 38.2259 92.9927 42.6526ZM61.9181 42.6526C61.9181 45.6232 62.287 48.1861 63.0248 50.3412C63.782 52.4769 64.9567 54.1272 66.5487 55.2921C68.1408 56.4377 70.1989 57.0104 72.7229 57.0104C75.2857 57.0104 77.3632 56.4377 78.9553 55.2921C80.5473 54.1272 81.7026 52.4769 82.4209 50.3412C83.1587 48.1861 83.5276 45.6232 83.5276 42.6526C83.5276 38.1871 82.6927 34.6729 81.023 32.11C79.3533 29.5472 76.606 28.2657 72.7811 28.2657C70.2377 28.2657 68.1602 28.8482 66.5487 30.0131C64.9567 31.1587 63.782 32.809 63.0248 34.9641C62.287 37.0998 61.9181 39.6626 61.9181 42.6526ZM101.817 21.4218H115.068C120.737 21.4218 125.028 22.2178 127.941 23.8099C130.853 25.402 132.309 28.1978 132.309 32.1974C132.309 33.8089 132.047 35.265 131.523 36.5659C131.018 37.8667 130.28 38.9346 129.309 39.7694C128.339 40.6043 127.154 41.1479 125.756 41.4003V41.6916C127.174 41.9828 128.455 42.4876 129.601 43.206C130.746 43.9049 131.659 44.934 132.338 46.293C133.037 47.6327 133.387 49.4189 133.387 51.6517C133.387 54.234 132.756 56.4474 131.494 58.2918C130.232 60.1363 128.426 61.5536 126.077 62.5438C123.747 63.5146 120.97 64 117.747 64H101.817V21.4218ZM110.845 38.2841H116.087C118.709 38.2841 120.524 37.8764 121.533 37.061C122.543 36.2261 123.048 35.0029 123.048 33.3914C123.048 31.7605 122.446 30.5956 121.242 29.8966C120.058 29.1783 118.175 28.8191 115.592 28.8191H110.845V38.2841ZM110.845 45.4485V56.5444H116.728C119.446 56.5444 121.339 56.0202 122.407 54.9718C123.475 53.9233 124.009 52.5157 124.009 50.7489C124.009 49.7005 123.776 48.7782 123.31 47.9822C122.844 47.1862 122.058 46.5649 120.951 46.1183C119.864 45.6718 118.359 45.4485 116.437 45.4485H110.845Z" fill="black"/>
<path d="M207.906 64.0001H197.596L187.694 47.8949L177.792 64.0001H168.123L182.248 42.0411L169.026 21.4218H178.986L188.16 36.7407L197.159 21.4218H206.886L193.519 42.5362L207.906 64.0001Z" fill="black"/>
<path fill-rule="evenodd" clip-rule="evenodd" d="M138.197 33.0641C138.197 31.9192 139.125 30.9911 140.27 30.9911H163.613C164.757 30.9911 165.686 31.9192 165.686 33.0641V56.4066C165.686 57.5515 164.757 58.4796 163.613 58.4796H162.39V44.2108C162.39 43.6384 161.926 43.1743 161.354 43.1743H154.025C153.453 43.1743 152.989 43.6384 152.989 44.2108V58.4796H140.27C139.125 58.4796 138.197 57.5515 138.197 56.4066V33.0641ZM141.262 44.1896C141.262 43.6172 141.726 43.1532 142.299 43.1532H148.235C148.807 43.1532 149.271 43.6172 149.271 44.1896V50.3237C149.271 50.8961 148.807 51.3602 148.235 51.3602H142.299C141.726 51.3602 141.262 50.8961 141.262 50.3237V44.1896Z" fill="url(#paint0_linear_426_4015)"/>
<rect x="153.721" y="50.6185" width="2.37311" height="2.37311" rx="1.18655" fill="url(#paint1_linear_426_4015)"/>
<path d="M137.324 23.5124C137.717 22.9998 138.325 22.6991 138.971 22.6991L164.865 22.6991C165.523 22.6991 166.141 23.0115 166.532 23.5409L168.063 25.6138C169.073 26.9823 168.096 28.918 166.395 28.918H137.385C135.667 28.918 134.695 26.9494 135.738 25.5854L137.324 23.5124Z" fill="url(#paint2_linear_426_4015)"/>
<defs>
<linearGradient id="paint0_linear_426_4015" x1="138.197" y1="44.7353" x2="165.686" y2="44.7353" gradientUnits="userSpaceOnUse">
<stop stop-color="#FFDE59"/>
<stop offset="1" stop-color="#FF914D"/>
</linearGradient>
<linearGradient id="paint1_linear_426_4015" x1="153.721" y1="51.8051" x2="156.094" y2="51.8051" gradientUnits="userSpaceOnUse">
<stop stop-color="#FFDE59"/>
<stop offset="1" stop-color="#FF914D"/>
</linearGradient>
<linearGradient id="paint2_linear_426_4015" x1="133.188" y1="25.8086" x2="170.502" y2="25.8086" gradientUnits="userSpaceOnUse">
<stop stop-color="#FFDE59"/>
<stop offset="1" stop-color="#FF914D"/>
</linearGradient>
</defs>
</svg>
