<svg width="50" height="10" viewBox="0 0 50 10" fill="none" xmlns="http://www.w3.org/2000/svg">
<path d="M4.61958 1.17082C4.73932 0.802296 5.26068 0.802296 5.38042 1.17082L6.03276 3.17852C6.08631 3.34333 6.2399 3.45492 6.41319 3.45492H8.52421C8.9117 3.45492 9.07281 3.95076 8.75932 4.17852L7.05147 5.41935C6.91128 5.52121 6.85261 5.70175 6.90616 5.86656L7.5585 7.87427C7.67824 8.24279 7.25645 8.54924 6.94297 8.32148L5.23511 7.08065C5.09492 6.97879 4.90508 6.97879 4.76489 7.08065L3.05703 8.32148C2.74355 8.54924 2.32176 8.24279 2.4415 7.87426L3.09384 5.86656C3.14739 5.70175 3.08872 5.52121 2.94853 5.41935L1.24068 4.17852C0.927191 3.95076 1.0883 3.45492 1.47579 3.45492H3.58681C3.7601 3.45492 3.91369 3.34333 3.96724 3.17852L4.61958 1.17082Z" fill="#FFD600"/>
<path d="M14.6196 1.17082C14.7393 0.802296 15.2607 0.802296 15.3804 1.17082L16.0328 3.17852C16.0863 3.34333 16.2399 3.45492 16.4132 3.45492H18.5242C18.9117 3.45492 19.0728 3.95076 18.7593 4.17852L17.0515 5.41935C16.9113 5.52121 16.8526 5.70175 16.9062 5.86656L17.5585 7.87427C17.6782 8.24279 17.2565 8.54924 16.943 8.32148L15.2351 7.08065C15.0949 6.97879 14.9051 6.97879 14.7649 7.08065L13.057 8.32148C12.7435 8.54924 12.3218 8.24279 12.4415 7.87426L13.0938 5.86656C13.1474 5.70175 13.0887 5.52121 12.9485 5.41935L11.2407 4.17852C10.9272 3.95076 11.0883 3.45492 11.4758 3.45492H13.5868C13.7601 3.45492 13.9137 3.34333 13.9672 3.17852L14.6196 1.17082Z" fill="#FFD600"/>
<path d="M24.6196 1.17082C24.7393 0.802296 25.2607 0.802296 25.3804 1.17082L26.0328 3.17852C26.0863 3.34333 26.2399 3.45492 26.4132 3.45492H28.5242C28.9117 3.45492 29.0728 3.95076 28.7593 4.17852L27.0515 5.41935C26.9113 5.52121 26.8526 5.70175 26.9062 5.86656L27.5585 7.87427C27.6782 8.24279 27.2565 8.54924 26.943 8.32148L25.2351 7.08065C25.0949 6.97879 24.9051 6.97879 24.7649 7.08065L23.057 8.32148C22.7435 8.54924 22.3218 8.24279 22.4415 7.87426L23.0938 5.86656C23.1474 5.70175 23.0887 5.52121 22.9485 5.41935L21.2407 4.17852C20.9272 3.95076 21.0883 3.45492 21.4758 3.45492H23.5868C23.7601 3.45492 23.9137 3.34333 23.9672 3.17852L24.6196 1.17082Z" fill="#FFD600"/>
<path d="M34.6196 1.17082C34.7393 0.802296 35.2607 0.802296 35.3804 1.17082L36.0328 3.17852C36.0863 3.34333 36.2399 3.45492 36.4132 3.45492H38.5242C38.9117 3.45492 39.0728 3.95076 38.7593 4.17852L37.0515 5.41935C36.9113 5.52121 36.8526 5.70175 36.9062 5.86656L37.5585 7.87427C37.6782 8.24279 37.2565 8.54924 36.943 8.32148L35.2351 7.08065C35.0949 6.97879 34.9051 6.97879 34.7649 7.08065L33.057 8.32148C32.7435 8.54924 32.3218 8.24279 32.4415 7.87426L33.0938 5.86656C33.1474 5.70175 33.0887 5.52121 32.9485 5.41935L31.2407 4.17852C30.9272 3.95076 31.0883 3.45492 31.4758 3.45492H33.5868C33.7601 3.45492 33.9137 3.34333 33.9672 3.17852L34.6196 1.17082Z" fill="#A5A5A5"/>
<path d="M44.6196 1.17082C44.7393 0.802296 45.2607 0.802296 45.3804 1.17082L46.0328 3.17852C46.0863 3.34333 46.2399 3.45492 46.4132 3.45492H48.5242C48.9117 3.45492 49.0728 3.95076 48.7593 4.17852L47.0515 5.41935C46.9113 5.52121 46.8526 5.70175 46.9062 5.86656L47.5585 7.87427C47.6782 8.24279 47.2565 8.54924 46.943 8.32148L45.2351 7.08065C45.0949 6.97879 44.9051 6.97879 44.7649 7.08065L43.057 8.32148C42.7435 8.54924 42.3218 8.24279 42.4415 7.87426L43.0938 5.86656C43.1474 5.70175 43.0887 5.52121 42.9485 5.41935L41.2407 4.17852C40.9272 3.95076 41.0883 3.45492 41.4758 3.45492H43.5868C43.7601 3.45492 43.9137 3.34333 43.9672 3.17852L44.6196 1.17082Z" fill="#A5A5A5"/>
</svg>
