<svg width="24" height="24" viewBox="0 0 24 24" fill="none" xmlns="http://www.w3.org/2000/svg">
<path d="M12 0C5.37876 0 0 5.37876 0 12C0 18.6212 5.37876 24 12 24C18.6212 24 24 18.6212 24 12C24 5.37876 18.6212 0 12 0ZM12 1.04348C18.0573 1.04348 22.9565 5.9427 22.9565 12C22.9565 18.0573 18.0573 22.9565 12 22.9565C5.9427 22.9565 1.04348 18.0573 1.04348 12C1.04348 5.9427 5.9427 1.04348 12 1.04348ZM16.7415 6.27921C16.3846 6.27921 15.9836 6.36187 15.5146 6.53091C14.7863 6.79334 6.21951 10.4307 5.2449 10.8444C4.68769 11.0813 3.65014 11.5219 3.65014 12.5727C3.65014 13.2692 4.05827 13.7674 4.86175 14.0543C5.29375 14.2083 6.31978 14.5193 6.91508 14.6831C7.1676 14.7525 7.43596 14.788 7.71196 14.788C8.25196 14.788 8.79539 14.6535 9.22113 14.4161C9.21748 14.5038 9.21986 14.5924 9.2303 14.681C9.29447 15.2289 9.63228 15.7441 10.1332 16.0598C10.4608 16.2664 13.137 18.0596 13.5367 18.3444C14.0981 18.7456 14.7187 18.9579 15.3302 18.9579C16.4989 18.9579 16.891 17.7512 17.0798 17.1715C17.3537 16.33 18.3794 9.48633 18.4952 8.27955C18.574 7.4526 18.2294 6.77163 17.573 6.45754C17.3273 6.33911 17.0467 6.27921 16.7415 6.27921ZM16.7415 7.32269C16.885 7.32269 17.0131 7.34642 17.1216 7.39912C17.3684 7.51755 17.4939 7.78158 17.4558 8.18071C17.3296 9.49705 16.3064 16.1786 16.0883 16.8485C15.9015 17.4214 15.7048 17.9144 15.3302 17.9144C14.9556 17.9144 14.5463 17.7831 14.143 17.4946C13.7397 17.2066 11.0615 15.4106 10.6895 15.1763C10.3635 14.9707 10.0183 14.4583 10.5041 13.9626C10.9043 13.5546 13.9397 10.6085 14.199 10.3492C14.3921 10.1556 14.3018 9.92221 14.1124 9.92221C14.0472 9.92221 13.9691 9.9497 13.8882 10.016C13.571 10.2753 9.14858 13.2346 8.76562 13.4725C8.51206 13.6301 8.11943 13.7435 7.71196 13.7435C7.53822 13.7435 7.36232 13.7227 7.19327 13.6763C6.60475 13.514 5.60879 13.2119 5.21332 13.071C4.83297 12.9353 4.69463 12.8054 4.69463 12.5727C4.69463 12.2419 5.16153 12.0136 5.65353 11.8043C6.17319 11.5837 15.1649 7.76527 15.8682 7.51223C16.1938 7.39432 16.4916 7.32269 16.7415 7.32269Z" fill="black"/>
</svg>
