<svg width="22" height="12" viewBox="0 0 22 12" fill="none" xmlns="http://www.w3.org/2000/svg">
<path d="M1.68936 0.704561C1.52619 0.323838 1.08528 0.147475 0.704561 0.310641C0.323838 0.473808 0.147475 0.914717 0.310641 1.29544L1.68936 0.704561ZM14.5872 7.3287L14.3125 6.63082L14.5872 7.3287ZM8.04145 7.73774C8.26736 7.39055 8.16904 6.92597 7.82185 6.70006C7.47466 6.47416 7.01008 6.57247 6.78417 6.91966L8.04145 7.73774ZM5.37136 9.09096C5.14545 9.43815 5.24377 9.90273 5.59096 10.1286C5.93815 10.3545 6.40273 10.2562 6.62864 9.90904L5.37136 9.09096ZM21.6894 1.29544C21.8525 0.914717 21.6762 0.473808 21.2954 0.310641C20.9147 0.147475 20.4738 0.323838 20.3106 0.704561L21.6894 1.29544ZM18 5.12884L17.4867 4.58199V4.58199L18 5.12884ZM18.9697 7.15917C19.2626 7.45206 19.7374 7.45206 20.0303 7.15917C20.3232 6.86628 20.3232 6.3914 20.0303 6.09851L18.9697 7.15917ZM10.25 10.5C10.25 10.9142 10.5858 11.25 11 11.25C11.4142 11.25 11.75 10.9142 11.75 10.5H10.25ZM15.3714 9.90904C15.5973 10.2562 16.0619 10.3545 16.409 10.1286C16.7562 9.90273 16.8545 9.43815 16.6286 9.09096L15.3714 9.90904ZM4.53033 5.65917C4.82322 5.36627 4.82322 4.8914 4.53033 4.59851C4.23744 4.30561 3.76256 4.30561 3.46967 4.59851L4.53033 5.65917ZM1.96967 6.09851C1.67678 6.3914 1.67678 6.86627 1.96967 7.15917C2.26256 7.45206 2.73744 7.45206 3.03033 7.15917L1.96967 6.09851ZM11 7.25C7.77611 7.25 5.46133 5.6446 3.9246 3.98966C3.15645 3.16243 2.59325 2.33284 2.22259 1.71014C2.03769 1.3995 1.90187 1.14232 1.8134 0.965371C1.76919 0.876955 1.73689 0.808747 1.71627 0.764114C1.70597 0.741803 1.69859 0.725401 1.69411 0.71533C1.69187 0.710295 1.69036 0.706845 1.68957 0.705032C1.68917 0.704125 1.68896 0.703628 1.68892 0.703548C1.68891 0.703507 1.68893 0.703571 1.68901 0.703739C1.68904 0.703823 1.68913 0.704029 1.68915 0.704071C1.68925 0.704302 1.68936 0.704561 1 1C0.310641 1.29544 0.310775 1.29575 0.31092 1.29609C0.310984 1.29624 0.311141 1.2966 0.311269 1.2969C0.311524 1.29749 0.311827 1.2982 0.312176 1.299C0.312874 1.30062 0.31376 1.30266 0.314833 1.30512C0.316979 1.31003 0.319875 1.31662 0.323526 1.32483C0.330827 1.34125 0.34115 1.36415 0.354526 1.39311C0.381273 1.45102 0.420263 1.5332 0.471758 1.63619C0.574692 1.84206 0.727935 2.13175 0.933655 2.47736C1.34425 3.16716 1.96855 4.08757 2.8254 5.01034C4.53867 6.8554 7.22389 8.75 11 8.75V7.25ZM14.3125 6.63082C13.3421 7.01276 12.2417 7.25 11 7.25V8.75C12.4382 8.75 13.7246 8.47424 14.8619 8.02658L14.3125 6.63082ZM6.78417 6.91966L5.37136 9.09096L6.62864 9.90904L8.04145 7.73774L6.78417 6.91966ZM21 1C20.3106 0.704561 20.3107 0.70441 20.3108 0.704267C20.3108 0.70423 20.3108 0.704096 20.3109 0.704023C20.3109 0.703877 20.311 0.703764 20.311 0.703683C20.3111 0.703523 20.3111 0.703494 20.3111 0.703595C20.311 0.703798 20.3107 0.704522 20.3101 0.705758C20.309 0.70823 20.307 0.712749 20.3041 0.719241C20.2983 0.732226 20.2889 0.753092 20.2758 0.781246C20.2495 0.837568 20.2086 0.922954 20.1526 1.03267C20.0406 1.25227 19.869 1.56831 19.6354 1.9432C19.1669 2.69516 18.4563 3.67197 17.4867 4.58199L18.5133 5.67569C19.6023 4.65348 20.3917 3.56587 20.9085 2.73646C21.1676 2.32068 21.36 1.9668 21.4889 1.71415C21.5533 1.58775 21.602 1.48643 21.6353 1.41507C21.6519 1.37939 21.6647 1.35118 21.6737 1.33104C21.6782 1.32097 21.6818 1.31292 21.6844 1.30696C21.6857 1.30398 21.6867 1.30153 21.6876 1.2996C21.688 1.29864 21.6883 1.29781 21.6886 1.29712C21.6888 1.29677 21.6889 1.29646 21.689 1.29618C21.6891 1.29604 21.6892 1.29585 21.6892 1.29578C21.6893 1.29561 21.6894 1.29544 21 1ZM17.4867 4.58199C16.6277 5.38825 15.5739 6.13433 14.3125 6.63082L14.8619 8.02658C16.3355 7.44656 17.5466 6.58302 18.5133 5.67569L17.4867 4.58199ZM17.4697 5.65917L18.9697 7.15917L20.0303 6.09851L18.5303 4.59851L17.4697 5.65917ZM10.25 8V10.5H11.75V8H10.25ZM13.9586 7.73774L15.3714 9.90904L16.6286 9.09096L15.2158 6.91966L13.9586 7.73774ZM3.46967 4.59851L1.96967 6.09851L3.03033 7.15917L4.53033 5.65917L3.46967 4.59851Z" fill="#767E8C"/>
</svg>
