<svg width="35" height="35" viewBox="0 0 35 35" fill="none" xmlns="http://www.w3.org/2000/svg">
<rect x="0.462646" y="0.462402" width="33.95" height="33.95" rx="9.90208" fill="#FFD600"/>
<circle cx="17.4371" cy="18.4982" r="3.18281" stroke="#1B1C1F" stroke-width="2.12188"/>
<path d="M15.0794 26.9855H19.7947C23.1059 26.9855 24.7615 26.9855 25.9508 26.2053C26.4656 25.8676 26.9077 25.4335 27.2517 24.928C28.0464 23.7604 28.0464 22.1349 28.0464 18.8838C28.0464 15.6328 28.0464 14.0073 27.2517 12.8396C26.9077 12.3341 26.4656 11.9001 25.9508 11.5624C25.1866 11.061 24.2298 10.8818 22.765 10.8178C22.066 10.8178 21.4642 10.2977 21.3271 9.62475C21.1215 8.6153 20.2187 7.88867 19.1702 7.88867H15.7038C14.6553 7.88867 13.7525 8.6153 13.5469 9.62475C13.4098 10.2977 12.808 10.8178 12.109 10.8178C10.6442 10.8818 9.68745 11.061 8.92325 11.5624C8.40838 11.9001 7.96632 12.3341 7.6223 12.8396C6.82764 14.0073 6.82764 15.6328 6.82764 18.8838C6.82764 22.1349 6.82764 23.7604 7.6223 24.928C7.96632 25.4335 8.40838 25.8676 8.92325 26.2053C10.1126 26.9855 11.7682 26.9855 15.0794 26.9855Z" stroke="#1B1C1F" stroke-width="2.12188"/>
<path d="M24.8637 15.3154H23.8027" stroke="#1B1C1F" stroke-width="2.12188" stroke-linecap="round"/>
</svg>
